<svg id="Layer_1" data-name="Layer 1" xmlns="http://www.w3.org/2000/svg" viewBox="0 0 1000 1000"><defs><style>.cls-1{fill:#c8b89a;}</style></defs><rect width="1000" height="1000"/><path class="cls-1" d="M436.652,613.851l-29.139-3c-.625-33.436-.655-67.342-.656-102.547H539.864v-24.14h-133c0-32.044.077-63.818.663-95.023l29.126-3V363.9H306v22.252l30.615,3.278c.64,34.287.671,68.724.671,102.9v15.336c0,34.715-.03,69.136-.662,102.9L306,613.851V636.1H436.652Z"/><polygon class="cls-1" points="694 559.068 660.772 559.068 650.081 612.399 556.69 612.399 689.667 382.881 689.667 363.897 656.151 363.897 624.149 363.897 481.467 363.897 481.467 440.933 514.096 440.933 524.995 387.601 610.405 387.601 477.324 617.119 477.324 636.103 510.355 636.103 542.956 636.103 694 636.103 694 559.068"/></svg>